<?xml version="1.0" standalone="no"?>
<!DOCTYPE svg PUBLIC "-//W3C//DTD SVG 20010904//EN"
 "http://www.w3.org/TR/2001/REC-SVG-20010904/DTD/svg10.dtd">
<svg version="1.0" xmlns="http://www.w3.org/2000/svg"
 width="695.000000pt" height="437.000000pt" viewBox="0 0 695.000000 437.000000"
 preserveAspectRatio="xMidYMid meet">
<metadata>
Created by potrace 1.16, written by Peter Selinger 2001-2019
</metadata>
<g transform="translate(0.000000,437.000000) scale(0.100000,-0.100000)"
fill="#000000" stroke="none">
<path d="M1780 3882 c-55 -17 -68 -86 -24 -121 35 -28 56 -26 88 5 31 32 33
53 6 86 -21 27 -46 38 -70 30z"/>
<path d="M1506 3739 c-21 -16 -26 -29 -26 -64 0 -37 5 -47 29 -64 16 -12 37
-21 46 -21 29 0 73 32 80 58 21 85 -62 144 -129 91z"/>
<path d="M1255 3535 c-20 -21 -25 -36 -25 -74 0 -64 32 -96 95 -96 63 0 95 32
95 96 0 40 -4 51 -31 73 -42 35 -98 36 -134 1z"/>
<path d="M4570 2561 c0 -582 4 -948 10 -981 21 -113 80 -199 163 -239 52 -25
172 -51 238 -51 l49 0 0 145 0 145 -27 6 c-63 13 -79 22 -100 54 l-23 33 0
908 0 909 -155 0 -155 0 0 -929z"/>
<path d="M2837 3324 c-4 -4 -7 -110 -7 -236 l0 -228 -75 0 -75 0 0 -120 0
-120 75 0 75 0 0 -477 c0 -279 4 -504 10 -541 20 -123 82 -208 188 -258 48
-23 73 -27 179 -32 l123 -5 0 147 0 146 -58 0 c-49 0 -63 4 -92 29 l-35 29 -3
481 -3 481 96 0 95 0 0 120 0 120 -95 0 -95 0 -2 233 -3 232 -146 3 c-80 1
-148 -1 -152 -4z"/>
<path d="M1175 3265 c-89 -32 -127 -124 -86 -209 30 -60 62 -80 133 -81 42 0
64 5 85 21 70 51 84 165 27 225 -47 50 -101 65 -159 44z"/>
<path d="M2170 2866 c-77 -17 -111 -37 -167 -101 -27 -30 -53 -52 -56 -48 -4
3 -7 37 -7 75 l0 69 -147 -3 -148 -3 -3 -772 -2 -773 150 0 150 0 0 524 c0
566 6 644 52 693 29 31 82 47 136 39 59 -8 87 -27 112 -76 19 -38 20 -58 20
-610 l0 -570 155 0 156 0 -3 648 c-3 581 -5 652 -20 697 -41 121 -125 196
-239 215 -75 12 -69 12 -139 -4z"/>
<path d="M3790 2866 c-92 -14 -166 -53 -235 -121 -109 -108 -123 -177 -124
-643 -2 -491 12 -565 129 -683 139 -139 372 -169 559 -72 67 34 155 124 185
187 23 49 46 145 46 193 l0 23 -149 0 -149 0 -18 -47 c-30 -80 -64 -103 -146
-102 -66 1 -106 23 -135 75 -20 34 -23 53 -23 160 0 102 3 123 16 128 9 3 148
6 310 6 l294 0 0 243 c0 134 -5 270 -11 303 -35 191 -177 326 -372 353 -89 12
-78 13 -177 -3z m163 -310 c73 -31 97 -88 97 -239 l0 -108 -157 3 -158 3 -3
104 c-3 114 12 172 53 211 41 38 113 50 168 26z"/>
<path d="M5480 2866 c-89 -17 -153 -50 -217 -112 -70 -69 -108 -152 -123 -266
-15 -113 -8 -814 9 -876 21 -78 54 -136 111 -194 86 -86 196 -128 334 -128
101 0 115 7 90 45 -27 41 -25 121 4 161 34 46 79 68 135 67 55 -1 89 -21 123
-71 l22 -31 30 57 c50 95 57 166 57 567 0 391 -7 470 -52 559 -60 118 -182
204 -320 225 -87 13 -118 13 -203 -3z m200 -324 c14 -10 35 -38 48 -62 22 -43
22 -51 22 -388 0 -236 -4 -357 -12 -384 -7 -25 -27 -53 -52 -74 -34 -29 -47
-34 -90 -34 -56 0 -105 24 -130 62 -28 44 -36 141 -36 437 0 319 8 381 51 427
13 14 37 29 53 34 42 13 116 4 146 -18z"/>
<path d="M1070 2090 l0 -780 160 0 160 0 0 780 0 780 -160 0 -160 0 0 -780z"/>
<path d="M3940 1177 c-35 -17 -66 -56 -81 -100 -37 -113 105 -227 211 -169 98
53 110 191 22 256 -31 24 -116 31 -152 13z"/>
<path d="M4102 805 c-92 -40 -56 -185 47 -185 104 0 141 146 46 185 -42 18
-51 18 -93 0z"/>
<path d="M4356 599 c-21 -16 -26 -29 -26 -64 0 -37 5 -47 29 -64 35 -25 54
-26 91 -4 48 28 54 91 14 128 -33 30 -73 32 -108 4z"/>
<path d="M4611 474 c-12 -15 -21 -34 -21 -44 0 -10 9 -29 21 -44 27 -34 81
-36 103 -4 53 75 -47 164 -103 92z"/>
</g>
</svg>
